# xmcd
#
# Track frame offsets:
#	200
#	12682
#	22885
#	36022
#	48727
#	62435
#	75220
#	86337
#	95810
#	108732
#	120630
#	131762
#	143085
#	152075
#	162910
#	174327
#	184575
#	196260
#	210315
#	221805
#
# Disc length: 3123 seconds
#
# Revision: 1
# Processed by: cddbd v1.5.1PL0 Copyright (c) Steve Scherf et al.
# Submitted via: audiograbber 1.83.01
#
DISCID=0b0c3114
DTITLE=Various Artist - The Kings of Country Music
DYEAR=1900
DGENRE=Country
TTITLE0=Johnny Cash - I Walk The Line
TTITLE1=Carl Perkins - Blue Suede Shoes
TTITLE2=Hank Williams - Jambalaya (On The Bayou)
TTITLE3=Red Foley - Chatanooga Shoe Shine Boy
TTITLE4=Pee Wee King - Slow Poke
TTITLE5=Hank Snow - I'm Movin' On
TTITLE6=Ernest Tubb - The Yellow Rose of Texas
TTITLE7=Webb Pierce - In The Jailhouse Now
TTITLE8=Jim Reeves - Four Walls
TTITLE9=Tennessee Ernie Ford - Sixteen Tons
TTITLE10=Marty Robbins - Singing The Blues
TTITLE11=Don Gibson - Oh Lonesome Me
TTITLE12=Faron Young - Alone With You
TTITLE13=Ferlin Husky - Gone
TTITLE14=Sonny James - Young Love
TTITLE15=Eddy Arnold - There's Been A Change In Me
TTITLE16=Ray Price - Crazy Arms
TTITLE17=Lefty Frizzell - Always Late (With Your Kisses)
TTITLE18=Carl Smith - Hey Joe!
TTITLE19=George Jones - White Lightning
EXTD=
EXTT0=
EXTT1=
EXTT2=
EXTT3=
EXTT4=
EXTT5=
EXTT6=
EXTT7=
EXTT8=
EXTT9=
EXTT10=
EXTT11=
EXTT12=
EXTT13=
EXTT14=
EXTT15=
EXTT16=
EXTT17=
EXTT18=
EXTT19=
PLAYORDER=
